<svg viewBox="0 0 24 24" fill="none" xmlns="http://www.w3.org/2000/svg">
  <path
    d="M12 2C6.477 2 2 6.588 2 12.253c0 4.515 2.865 8.342 6.839 9.697.5.098.683-.222.683-.494 0-.244-.009-.891-.014-1.75-2.782.617-3.369-1.37-3.369-1.37-.455-1.176-1.11-1.49-1.11-1.49-.908-.636.069-.623.069-.623 1.004.072 1.532 1.05 1.532 1.05.893 1.566 2.341 1.114 2.91.852.091-.663.35-1.114.636-1.37-2.221-.258-4.556-1.137-4.556-5.06 0-1.118.389-2.031 1.028-2.748-.104-.258-.446-1.296.098-2.7 0 0 .84-.275 2.75 1.05A9.33 9.33 0 0 1 12 6.32c.85.004 1.705.118 2.504.345 1.907-1.325 2.746-1.05 2.746-1.05.546 1.404.204 2.442.1 2.7.64.717 1.027 1.63 1.027 2.748 0 3.934-2.339 4.798-4.568 5.051.36.32.679.95.679 1.915 0 1.382-.013 2.496-.013 2.835 0 .274.18.596.688.495A10.01 10.01 0 0 0 22 12.253C22 6.588 17.522 2 12 2Z"
    fill="currentColor"
  />
</svg>

