<svg viewBox="0 0 24 24" fill="none" xmlns="http://www.w3.org/2000/svg">
  <path
    d="M12 3.25A6.25 6.25 0 0 0 5.75 9.5c0 1.592.54 3.08 1.467 4.352a24.7 24.7 0 0 0 4.115 4.357.75.75 0 0 0 .936 0 24.7 24.7 0 0 0 4.115-4.357A7.4 7.4 0 0 0 18.25 9.5 6.25 6.25 0 0 0 12 3.25Zm0 2A4.25 4.25 0 0 1 16.25 9.5c0 1.244-.415 2.465-1.184 3.54a23.01 23.01 0 0 1-3.066 3.41 23.01 23.01 0 0 1-3.066-3.41A5.4 5.4 0 0 1 7.75 9.5 4.25 4.25 0 0 1 12 5.25Zm0 2.5A1.75 1.75 0 1 0 12 11.25 1.75 1.75 0 0 0 12 7.75Z"
    fill="currentColor"
  />
</svg>

